<svg width="64" height="64" viewBox="0 0 64 64" fill="none" xmlns="http://www.w3.org/2000/svg">
  <rect width="64" height="64" rx="18" fill="#F7FBFA"/>
  <rect x="13" y="13" width="38" height="38" rx="12" fill="#0D9488"/>
  <path d="M31.5 19.5H32.5C33.3284 19.5 34 20.1716 34 21V28H41C41.8284 28 42.5 28.6716 42.5 29.5V30.5C42.5 31.3284 41.8284 32 41 32H34V39C34 39.8284 33.3284 40.5 32.5 40.5H31.5C30.6716 40.5 30 39.8284 30 39V32H23C22.1716 32 21.5 31.3284 21.5 30.5V29.5C21.5 28.6716 22.1716 28 23 28H30V21C30 20.1716 30.6716 19.5 31.5 19.5Z" fill="#FFF7D6"/>
  <circle cx="32" cy="32" r="22" stroke="#D4A12C" stroke-width="2" opacity="0.35"/>
</svg>